<svg width="56" height="56" viewBox="0 0 56 56" fill="none" xmlns="http://www.w3.org/2000/svg">
<path d="M49.8442 6.15585C49.1871 5.49833 48.3133 5.10215 47.3858 5.04113C46.4582 4.98012 45.5401 5.25844 44.8025 5.82422C40.864 8.84253 33.2441 14.9194 25.9761 21.9708L34.0291 30.0239C41.0807 22.7559 47.1574 15.1358 50.1758 11.1974C50.7416 10.4599 51.02 9.54175 50.9589 8.61419C50.8979 7.68663 50.5017 6.8129 49.8442 6.15585ZM20.6977 27.4658L28.5341 35.3023C29.6643 34.3076 30.8417 33.2248 32.0057 32.0608L23.9393 23.9943C22.7754 25.1582 21.6924 26.3356 20.6977 27.4658ZM15.338 34.1382L21.8618 40.662C22.8836 39.9106 24.4941 38.6927 26.3823 37.1294L18.8706 29.6177C17.3073 31.5058 16.0892 33.1163 15.338 34.1382ZM8.41216 38.2452L8.84649 39.8666C9.01755 41.232 10.6213 42.8311 11.9882 43.002C12.8782 43.2459 13.9853 43.5493 15.2917 44.8559C16.5166 46.0807 16.8584 47.1275 17.0962 47.9862C17.9734 47.5208 18.7357 46.8654 19.3272 46.0677C19.9186 45.27 20.3245 44.3503 20.515 43.3757L12.6242 35.4849C10.9143 35.8214 9.40316 36.8117 8.41216 38.2452ZM11.23 45.7718C10.0797 45.6579 7.63505 44.1202 6.84788 42.5592L5.07896 49.2834C5.01853 49.5101 5.01877 49.7487 5.07964 49.9752C5.14051 50.2018 5.25987 50.4084 5.42576 50.5742C5.59165 50.7401 5.79824 50.8595 6.0248 50.9203C6.25137 50.9812 6.48995 50.9814 6.71663 50.921L14.3729 48.9069C14.1747 48.1829 14.0294 47.6537 13.2616 46.886C12.4929 46.1174 11.9637 45.9727 11.23 45.7718Z" fill="#7350BF"/>
</svg>
